<?xml version="1.0" encoding="iso-8859-1"?>
<!-- Generator: Adobe Illustrator 25.4.1, SVG Export Plug-In . SVG Version: 6.00 Build 0)  -->
<svg version="1.1" id="&#xB808;&#xC774;&#xC5B4;_2" xmlns="http://www.w3.org/2000/svg" xmlns:xlink="http://www.w3.org/1999/xlink"
	 x="0px" y="0px" viewBox="0 0 250 250" style="enable-background:new 0 0 250 250;" xml:space="preserve">
<g>
	<circle style="fill:#953BD9;" cx="125" cy="125" r="125"/>
	<path style="fill:#FFFFFF;" d="M89.365,165.277c21.503-19.19,42.459-38.949,63.266-58.86c2.425-2.327,4.864-5.007,7.239-7.597
		c1.185-1.304,2.347-2.64,3.441-3.944c0.559-0.665,1.049-1.276,1.505-1.884c0.468-0.63,0.899-1.257,1.286-1.886
		c1.574-2.518,2.36-5.041,2.063-7.002c-0.132-0.997-0.503-1.946-1.169-2.915c-0.631-0.955-1.654-1.962-2.67-2.713
		c-2.056-1.505-4.04-1.97-6.49-1.512c-2.445,0.45-5.171,1.92-7.744,3.805c-2.603,1.897-5.066,4.196-7.644,6.684l-7.783,7.491
		l-31.134,29.963c-10.384,9.981-20.759,19.972-31.081,30.018l-7.753,7.522c-0.683,0.661-1.196,1.169-1.747,1.758
		c-0.543,0.577-1.063,1.174-1.563,1.786c-1,1.225-1.914,2.515-2.731,3.86c-1.634,2.69-2.876,5.598-3.659,8.613
		c-0.773,3.05-1.198,6.276-1.017,9.171c0.181,2.917,0.976,5.504,2.463,7.503c0.739,1.025,1.624,1.854,2.809,2.744
		c1.154,0.864,2.458,1.648,3.829,2.324c2.732,1.347,5.791,2.313,8.585,2.592c0.689,0.064,1.373,0.103,1.973,0.061
		c0.257,0,0.713-0.042,1.142-0.081l1.27-0.121c1.684-0.171,3.302-0.403,4.855-0.728c3.118-0.624,5.938-1.672,8.57-3.178
		c2.615-1.553,5.041-3.501,7.284-5.868l14.808-15.734l29.617-31.469l29.649-31.438l7.414-7.858c1.242-1.302,2.457-2.638,3.725-3.906
		c1.186-1.227,2.316-2.458,3.37-3.709c2.109-2.5,3.883-5.057,5.11-7.707c0.625-1.352,1.044-2.587,1.535-4.271
		c0.464-1.587,0.866-3.182,1.195-4.777c1.317-6.365,1.433-12.829-0.442-18.278c-0.928-2.723-2.342-5.173-4.215-7.301
		c-0.467-0.533-0.972-1.039-1.486-1.539c-0.57-0.485-1.125-1.016-1.7-1.476c-1.155-0.909-2.328-1.743-3.536-2.369
		c-2.423-1.289-4.86-1.912-7.718-1.969c-1.433-0.038-2.974,0.064-4.715,0.222c-1.976,0.17-3.159,0.269-4.673,0.596
		c-2.946,0.612-6.115,1.722-9.304,2.974c-2.844,1.135-5.641,2.667-8.33,4.495c-2.694,1.819-5.288,3.913-7.778,6.178
		c-1.245,1.133-2.471,2.302-3.667,3.516l-3.773,3.833l-15.148,15.407l-30.295,30.813c-2.407,2.448-6.344,2.483-8.795,0.079
		c-2.451-2.404-2.486-6.337-0.08-8.785l0.019-0.019l30.426-30.685l15.213-15.342l3.822-3.85c1.337-1.346,2.723-2.658,4.147-3.942
		c2.848-2.567,5.878-5.005,9.163-7.205c3.277-2.204,6.829-4.162,10.687-5.681c3.521-1.355,7.172-2.662,11.289-3.512
		c1.03-0.207,2.084-0.384,3.171-0.51c1.212-0.128,1.898-0.175,2.87-0.261c1.847-0.158,3.908-0.304,6.077-0.239
		c2.169,0.06,4.445,0.343,6.667,0.912c2.228,0.572,4.355,1.458,6.333,2.503c1.984,1.051,3.756,2.319,5.418,3.648
		c0.826,0.67,1.58,1.38,2.365,2.08c0.776,0.758,1.533,1.535,2.248,2.362c2.868,3.295,5.079,7.223,6.433,11.327
		c1.369,4.108,1.929,8.342,1.948,12.44c0.017,4.106-0.482,8.099-1.305,11.95c-0.412,1.927-0.906,3.82-1.467,5.684
		c-0.521,1.768-1.264,3.952-2.178,5.857c-1.833,3.879-4.268,7.245-6.815,10.227c-1.277,1.494-2.595,2.906-3.921,4.259
		c-1.287,1.27-2.506,2.589-3.759,3.884l-7.473,7.8l-29.899,31.195l-29.931,31.164l-14.965,15.582
		c-2.739,2.83-5.975,5.444-9.585,7.521c-3.636,2.055-7.68,3.475-11.636,4.22c-1.978,0.392-3.935,0.647-5.837,0.824l-1.42,0.127
		c-0.468,0.038-0.91,0.082-1.553,0.1c-1.199,0.062-2.321-0.009-3.423-0.118c-4.378-0.489-8.275-1.808-11.994-3.642
		c-1.852-0.93-3.648-2.011-5.369-3.315c-1.692-1.27-3.467-2.927-4.82-4.842c-1.378-1.904-2.422-4.037-3.098-6.205
		c-0.684-2.171-1.032-4.366-1.152-6.504c-0.217-4.302,0.382-8.291,1.39-12.204c1.052-3.948,2.698-7.717,4.825-11.166
		c1.063-1.725,2.246-3.372,3.533-4.927c0.644-0.778,1.312-1.534,2.008-2.264c0.682-0.723,1.457-1.475,2.072-2.062l7.803-7.473
		c10.419-9.948,20.786-19.951,31.142-29.963l31.089-30.018l7.772-7.505c2.599-2.511,5.396-5.165,8.614-7.522
		c1.608-1.183,3.34-2.296,5.246-3.262c1.898-0.967,4.003-1.779,6.328-2.228c2.305-0.471,4.878-0.472,7.335,0.086
		c2.468,0.552,4.723,1.711,6.602,3.088c1.862,1.401,3.476,2.918,4.897,4.927c1.409,1.969,2.485,4.423,2.858,6.995
		c0.394,2.57,0.109,5.134-0.536,7.387c-0.646,2.267-1.618,4.275-2.706,6.096c-0.545,0.911-1.125,1.776-1.719,2.599
		c-0.611,0.842-1.241,1.641-1.831,2.362c-1.196,1.475-2.398,2.856-3.593,4.254c-2.419,2.782-4.752,5.504-7.445,8.245
		c-20.257,20.505-40.365,41.161-59.926,62.387c-2.831,3.073-7.62,3.271-10.696,0.443c-3.076-2.828-3.274-7.611-0.443-10.684
		C89.005,165.615,89.186,165.437,89.365,165.277z"/>
</g>
</svg>
