<?xml version="1.0" standalone="no"?>
<!DOCTYPE svg PUBLIC "-//W3C//DTD SVG 20010904//EN"
 "http://www.w3.org/TR/2001/REC-SVG-20010904/DTD/svg10.dtd">
<svg version="1.0" xmlns="http://www.w3.org/2000/svg"
 width="250.000000pt" height="250.000000pt" viewBox="0 0 250.000000 250.000000"
 preserveAspectRatio="xMidYMid meet">
<metadata>
Created by potrace 1.14, written by Peter Selinger 2001-2017
</metadata>
<g transform="translate(0.000000,250.000000) scale(0.100000,-0.100000)"
fill="#000000" stroke="none">
<path d="M1050 2485 c-530 -83 -955 -513 -1036 -1045 -73 -487 140 -966 551
-1235 139 -91 268 -145 435 -181 125 -27 391 -26 516 3 486 113 844 471 957
957 29 125 30 391 3 516 -73 337 -260 610 -544 797 -255 168 -574 236 -882
188z m813 -384 c66 -32 134 -101 165 -169 53 -113 30 -327 -46 -441 -38 -57
-955 -1013 -1003 -1047 -91 -63 -232 -89 -330 -61 -168 49 -243 185 -194 353
34 118 51 138 439 512 590 570 582 563 674 578 104 16 212 -76 212 -181 0 -86
-33 -128 -353 -460 -133 -138 -288 -299 -345 -360 -92 -97 -107 -109 -137
-109 -47 0 -75 28 -75 74 0 35 10 46 213 232 301 276 531 501 566 555 39 58
39 87 2 124 -38 37 -74 37 -132 0 -24 -15 -240 -217 -479 -448 -490 -472 -493
-476 -494 -605 -1 -80 17 -111 89 -148 85 -43 204 -27 289 38 80 63 945 990
970 1041 87 173 44 357 -98 416 -72 30 -221 -2 -322 -70 -29 -18 -181 -164
-340 -324 -301 -305 -312 -314 -356 -274 -10 9 -18 30 -18 47 0 28 34 66 298
328 170 169 321 311 352 331 48 30 159 75 225 91 11 3 56 4 100 2 60 -2 93 -8
128 -25z"/>
</g>
</svg>
