<svg width="12" height="12" viewBox="0 0 12 12" fill="none" xmlns="http://www.w3.org/2000/svg">
<path d="M5.57537 4.21423C5.66661 4.361 5.82718 4.45025 6 4.45025C6.17282 4.45025 6.33339 4.361 6.42463 4.21423C6.59748 3.9362 7.13883 3.41766 7.92492 3.5115C8.96196 3.6353 9.61088 4.63572 9.48443 5.48105C9.40358 6.02154 9.05951 6.57458 8.52767 7.14586C7.99995 7.71272 7.34115 8.24226 6.70574 8.75183L6.69766 8.75831C6.45815 8.95039 6.22054 9.14094 6 9.32691C5.77947 9.14094 5.54186 8.95039 5.30235 8.75832L5.29426 8.75183C4.65885 8.24226 4.00005 7.71272 3.47233 7.14586C2.94049 6.57458 2.59642 6.02154 2.51557 5.48105C2.38912 4.63572 3.03804 3.6353 4.07508 3.5115C4.86117 3.41766 5.40252 3.9362 5.57537 4.21423Z" fill="#FF736F" stroke="#FF736F" stroke-linejoin="round"/>
</svg>