<?xml version="1.0" encoding="utf-8"?>
<!-- Generator: Adobe Illustrator 25.4.1, SVG Export Plug-In . SVG Version: 6.00 Build 0)  -->
<svg version="1.1" id="레이어_1" xmlns="http://www.w3.org/2000/svg" xmlns:xlink="http://www.w3.org/1999/xlink" x="0px"
	 y="0px" viewBox="0 0 800 700" style="enable-background:new 0 0 800 700;" xml:space="preserve">
<style type="text/css">
	.st0{display:none;}
	.st1{display:inline;}
	.st2{fill:none;}
	.st3{fill:#FFFFFF;}
	.st4{font-family:'Consolas-Bold';}
	.st5{font-size:65px;}
	.st6{font-size:62.6974px;}
	.st7{font-size:94.0461px;}
	.st8{font-size:39.1859px;}
	.st9{fill:#953BD9;}
	.st10{font-size:45px;}
	.st11{font-size:47.023px;}
	.st12{fill:#6C47C7;}
	.st13{fill:#FF9A34;}
</style>
<g id="home-sec2" class="st0">
	<g class="st1">
		<rect y="0.7" class="st2" width="800" height="699.3"/>
		<g id="temp-roadmap" transform="translate(-50 -1176)">
			<text transform="matrix(0.9999 0 0 1 215.3921 1555.2568)" class="st3 st4 st5">UX</text>
			<text transform="matrix(0.9999 0 0 1 215.1108 1298.1445)" class="st3 st4 st6">why?</text>
			<text transform="matrix(0.9914 0 0 1 138.585 1684.8115)" class="st3 st4 st7">Front end</text>
			<text transform="matrix(0.9999 0 0 1 348.041 1382.4834)" class="st3 st4 st8">Design</text>
			<text transform="matrix(0.9999 0 0 1 82 1806.6377)" class="st9 st4 st10">develope;</text>
			<text transform="matrix(0.9999 0 0 1 476.6377 1471.7373)" class="st3 st4 st11">Directing</text>
		</g>
	</g>
</g>
<g id="sec3">
	<g>
		<path id="icon" class="st12" d="M383.3,139.1c16.1-13.9,31.8-28.2,47.4-42.6c1.8-1.7,3.6-3.6,5.4-5.5c0.9-0.9,1.8-1.9,2.6-2.9
			c0.4-0.5,0.8-0.9,1.1-1.4c0.4-0.5,0.7-0.9,1-1.4c1.1-1.5,1.6-3.2,1.5-5.1c-0.1-0.8-0.4-1.5-0.9-2.1c-0.6-0.8-1.2-1.4-2-2
			c-1.4-1.1-3.2-1.5-4.9-1.1c-2.1,0.5-4.1,1.4-5.8,2.8c-2,1.5-3.9,3.1-5.7,4.8l-5.8,5.4l-23.3,21.7c-7.8,7.2-15.5,14.5-23.3,21.7
			l-5.8,5.4c-0.5,0.5-0.9,0.8-1.3,1.3s-0.8,0.8-1.2,1.3c-0.7,0.9-1.4,1.8-2,2.8c-1.2,1.9-2.1,4-2.7,6.2c-0.6,2.2-0.9,4.4-0.8,6.6
			c0.1,2,0.7,3.8,1.8,5.4c0.6,0.8,1.3,1.4,2.1,2c0.9,0.6,1.9,1.2,2.9,1.7c2,1,4.2,1.6,6.4,1.9c0.5,0.1,1,0.1,1.5,0
			c0.2,0,0.5,0,0.9-0.1l1-0.1c1.2-0.1,2.4-0.3,3.6-0.5c2.2-0.4,4.4-1.2,6.4-2.3c2-1.2,3.8-2.6,5.5-4.2l11.1-11.4l22.2-22.8
			l22.2-22.7l5.6-5.7c0.9-0.9,1.8-1.9,2.8-2.8c0.9-0.9,1.7-1.8,2.5-2.7c1.5-1.7,2.8-3.6,3.8-5.6c0.5-1,0.9-2,1.1-3.1
			c0.3-1.1,0.6-2.3,0.9-3.5c1-4.6,1.1-9.3-0.3-13.2c-0.7-2-1.8-3.8-3.2-5.3c-0.4-0.4-0.7-0.8-1.1-1.1c-0.4-0.4-0.8-0.7-1.3-1.1
			c-0.8-0.7-1.7-1.2-2.6-1.7c-1.8-0.9-3.8-1.4-5.8-1.4c-1.2,0-2.4,0-3.5,0.2c-1.2,0.1-2.3,0.2-3.5,0.4c-2.4,0.5-4.7,1.2-7,2.2
			c-2.2,0.9-4.3,2-6.2,3.3c-2,1.3-4,2.8-5.8,4.5c-0.9,0.8-1.8,1.7-2.7,2.5l-2.8,2.8L403.8,82l-22.7,22.3c-1.8,1.8-4.7,1.8-6.6,0.1
			c-1.8-1.7-1.9-4.4-0.2-6.2c0.1-0.1,0.1-0.1,0.2-0.2l0,0l22.8-22.2l11.4-11.1l2.9-2.8c1-1,2-1.9,3.1-2.9c2.2-1.9,4.5-3.6,6.9-5.2
			c2.5-1.7,5.2-3,8-4.1c2.7-1.1,5.6-1.9,8.5-2.5c0.8-0.2,1.6-0.3,2.4-0.4c0.9-0.1,1.4-0.1,2.1-0.2c1.5-0.1,3-0.2,4.6-0.2
			c1.7,0,3.4,0.3,5,0.7c1.6,0.4,3.2,1,4.7,1.8c1.4,0.8,2.8,1.6,4.1,2.6c0.6,0.5,1.2,1,1.8,1.5c0.6,0.5,1.1,1.1,1.7,1.7
			c2.1,2.4,3.8,5.2,4.8,8.2c1,2.9,1.5,5.9,1.5,9c0,2.9-0.3,5.8-1,8.6c-0.3,1.4-0.7,2.8-1.1,4.1c-0.4,1.5-1,2.9-1.6,4.2
			c-1.4,2.7-3.1,5.2-5.1,7.4c-1,1.1-1.9,2.1-2.9,3.1c-1,0.9-1.9,1.9-2.8,2.8l-5.6,5.6L428,130.5L405.6,153l-11.2,11.3
			c-2.1,2.1-4.5,4-7.2,5.4c-2.7,1.5-5.7,2.5-8.7,3.1c-1.5,0.3-2.9,0.5-4.4,0.6l-1.1,0.1c-0.4,0-0.7,0.1-1.2,0.1
			c-0.9,0-1.7,0-2.6-0.1c-3.1-0.4-6.2-1.2-9-2.6c-1.4-0.7-2.8-1.5-4-2.4c-1.4-1-2.6-2.2-3.6-3.5c-1-1.4-1.8-2.9-2.3-4.5
			c-0.5-1.5-0.8-3.1-0.9-4.7c-0.1-3,0.2-6,1-8.8c0.8-2.9,2-5.6,3.6-8.1c0.8-1.2,1.7-2.4,2.6-3.6c0.5-0.6,1-1.1,1.5-1.6
			s1.1-1.1,1.6-1.5l5.8-5.4c7.8-7.2,15.6-14.4,23.3-21.7l23.3-21.7l5.8-5.4c2-2,4.2-3.8,6.5-5.4c1.2-0.9,2.6-1.7,3.9-2.4
			c1.5-0.8,3.1-1.3,4.7-1.6c3.6-0.7,7.4,0.1,10.4,2.3c1.4,1,2.6,2.2,3.7,3.6c1.1,1.5,1.8,3.2,2.1,5.1c0.3,1.8,0.1,3.6-0.4,5.3
			c-0.5,1.6-1.2,3-2,4.4c-0.4,0.7-0.8,1.3-1.3,1.9s-0.9,1.2-1.4,1.7c-0.9,1.1-1.8,2.1-2.7,3.1c-1.8,2-3.6,4-5.6,6
			c-15.2,14.8-30.2,29.8-44.9,45.1c-2.2,2.2-5.7,2.4-8,0.3c-2.2-1.9-2.5-5.3-0.5-7.5c0.1-0.1,0.1-0.1,0.2-0.2
			C383.1,139.4,383.2,139.3,383.3,139.1z"/>
		<path id="icon-2" class="st9" d="M383.3,606c16.1-13.9,31.8-28.2,47.4-42.6c1.8-1.7,3.6-3.6,5.4-5.5c0.9-0.9,1.8-1.9,2.6-2.9
			c0.4-0.5,0.8-0.9,1.1-1.4c0.4-0.5,0.7-0.9,1-1.4c1.1-1.5,1.6-3.2,1.5-5.1c-0.1-0.8-0.4-1.5-0.9-2.1c-0.6-0.8-1.2-1.4-2-2
			c-1.4-1.1-3.2-1.5-4.9-1.1c-2.1,0.5-4.1,1.4-5.8,2.8c-2,1.5-3.9,3.1-5.7,4.8l-5.8,5.4l-23.3,21.7c-7.8,7.2-15.5,14.5-23.3,21.7
			l-5.8,5.4c-0.5,0.5-0.9,0.8-1.3,1.3c-0.4,0.4-0.8,0.8-1.2,1.3c-0.7,0.9-1.4,1.8-2,2.8c-1.2,1.9-2.1,4-2.7,6.2
			c-0.6,2.2-0.9,4.4-0.8,6.6c0.1,2,0.7,3.8,1.8,5.4c0.6,0.8,1.3,1.4,2.1,2c0.9,0.6,1.9,1.2,2.9,1.7c2,1,4.2,1.6,6.4,1.9
			c0.5,0.1,1,0.1,1.5,0c0.2,0,0.5,0,0.9-0.1l1-0.1c1.2-0.1,2.4-0.3,3.6-0.5c2.2-0.4,4.4-1.2,6.4-2.3c2-1.2,3.8-2.6,5.5-4.2
			l11.1-11.4l22.2-22.8l22.2-22.7l5.6-5.7c0.9-0.9,1.8-1.9,2.8-2.8c0.9-0.9,1.7-1.8,2.5-2.7c1.5-1.7,2.8-3.6,3.8-5.6
			c0.5-1,0.9-2,1.1-3.1c0.3-1.1,0.6-2.3,0.9-3.5c1-4.6,1.1-9.3-0.3-13.2c-0.7-2-1.8-3.8-3.2-5.3c-0.4-0.4-0.7-0.8-1.1-1.1
			c-0.4-0.4-0.8-0.7-1.3-1.1c-0.8-0.7-1.7-1.2-2.6-1.7c-1.8-0.9-3.8-1.4-5.8-1.4c-1.2,0-2.4,0-3.5,0.2c-1.2,0.1-2.3,0.2-3.5,0.4
			c-2.4,0.5-4.7,1.2-7,2.2c-2.2,0.9-4.3,2-6.2,3.3c-2,1.3-4,2.8-5.8,4.5c-0.9,0.8-1.8,1.7-2.7,2.5l-2.8,2.8l-11.3,11.2l-22.7,22.3
			c-1.8,1.8-4.7,1.8-6.6,0.1c-1.8-1.7-1.9-4.4-0.2-6.2c0.1-0.1,0.1-0.1,0.2-0.2l0,0l22.8-22.2l11.4-11.1l2.9-2.8c1-1,2-1.9,3.1-2.9
			c2.2-1.9,4.5-3.6,6.9-5.2c2.5-1.7,5.2-3,8-4.1c2.7-1.1,5.6-1.9,8.5-2.5c0.8-0.2,1.6-0.3,2.4-0.4c0.9-0.1,1.4-0.1,2.1-0.2
			c1.5-0.1,3-0.2,4.6-0.2c1.7,0,3.4,0.3,5,0.7c1.6,0.4,3.2,1,4.7,1.8c1.4,0.8,2.8,1.6,4.1,2.6c0.6,0.5,1.2,1,1.8,1.5
			c0.6,0.5,1.1,1.1,1.7,1.7c2.1,2.4,3.8,5.2,4.8,8.2c1,2.9,1.5,5.9,1.5,9c0,2.9-0.3,5.8-1,8.6c-0.3,1.4-0.7,2.8-1.1,4.1
			c-0.4,1.5-1,2.9-1.6,4.2c-1.4,2.7-3.1,5.2-5.1,7.4c-1,1.1-1.9,2.1-2.9,3.1c-1,0.9-1.9,1.9-2.8,2.8l-5.6,5.6L428,597.4l-22.4,22.5
			l-11.2,11.3c-2.1,2.1-4.5,4-7.2,5.4c-2.7,1.5-5.7,2.5-8.7,3.1c-1.5,0.3-2.9,0.5-4.4,0.6l-1.1,0.1c-0.4,0-0.7,0.1-1.2,0.1
			c-0.9,0-1.7,0-2.6-0.1c-3.1-0.4-6.2-1.2-9-2.6c-1.4-0.7-2.8-1.5-4-2.4c-1.4-1-2.6-2.2-3.6-3.5c-1-1.4-1.8-2.9-2.3-4.5
			c-0.5-1.5-0.8-3.1-0.9-4.7c-0.1-3,0.2-6,1-8.8c0.8-2.9,2-5.6,3.6-8.1c0.8-1.2,1.7-2.4,2.6-3.6c0.5-0.6,1-1.1,1.5-1.6
			c0.5-0.5,1.1-1.1,1.6-1.5l5.8-5.4c7.8-7.2,15.6-14.4,23.3-21.7l23.3-21.7l5.8-5.4c2-2,4.2-3.8,6.5-5.4c1.2-0.9,2.6-1.7,3.9-2.4
			c1.5-0.8,3.1-1.3,4.7-1.6c3.6-0.7,7.4,0.1,10.4,2.3c1.4,1,2.6,2.2,3.7,3.6c1.1,1.5,1.8,3.2,2.1,5.1c0.3,1.8,0.1,3.6-0.4,5.3
			c-0.5,1.6-1.2,3-2,4.4c-0.4,0.7-0.8,1.3-1.3,1.9c-0.4,0.6-0.9,1.2-1.4,1.7c-0.9,1.1-1.8,2.1-2.7,3.1c-1.8,2-3.6,4-5.6,6
			c-15.2,14.8-30.2,29.8-44.9,45.1c-2.2,2.2-5.7,2.4-8,0.3c-2.2-1.9-2.5-5.3-0.5-7.5c0.1-0.1,0.1-0.1,0.2-0.2
			C383.1,606.3,383.2,606.2,383.3,606z"/>
		<path id="icon-3" class="st12" d="M414.3,258.2c-13.4-16.5-26.4-33.3-39.3-50.2c-1.5-2-3-4.2-4.4-6.4c-0.7-1.1-1.4-2.2-2-3.3
			c-0.3-0.5-0.6-1-0.9-1.5c-0.3-0.5-0.5-1-0.7-1.5c-0.8-1.6-1-3.5-0.6-5.3c0.2-0.7,0.7-1.4,1.2-1.9c0.7-0.7,1.5-1.2,2.3-1.6
			c1.5-0.8,3.4-0.9,5-0.2c2,0.9,3.8,2.1,5.2,3.7c1.7,1.8,3.3,3.7,4.8,5.8l4.8,6.3l19.2,25.4c6.4,8.5,12.8,16.9,19.2,25.4l4.8,6.4
			c0.4,0.6,0.7,1,1.1,1.5s0.6,1,0.9,1.5c0.6,1,1.1,2,1.5,3.1c0.9,2.1,1.4,4.3,1.6,6.6c0.2,2.2,0.1,4.5-0.4,6.7
			c-0.4,1.9-1.4,3.7-2.8,5c-0.7,0.7-1.5,1.2-2.4,1.6c-1,0.5-2,0.9-3.1,1.2c-2.2,0.6-4.4,0.9-6.7,0.7c-0.5,0-1-0.1-1.5-0.2
			c-0.2,0-0.5-0.1-0.8-0.2l-0.9-0.3c-1.2-0.3-2.3-0.7-3.5-1.1c-2.1-0.8-4.1-1.9-5.9-3.4c-1.8-1.5-3.3-3.2-4.6-5.1l-8.9-13.1
			l-17.9-26.3l-17.9-26.3l-4.5-6.6c-0.8-1.1-1.5-2.2-2.3-3.3c-0.7-1-1.4-2.1-2-3.1c-1.2-1.9-2.1-4-2.8-6.2c-0.3-1.1-0.5-2.1-0.6-3.2
			c-0.1-1.2-0.2-2.4-0.3-3.6c-0.2-4.7,0.6-9.3,2.6-13c1-1.8,2.4-3.4,4-4.7c0.4-0.3,0.8-0.6,1.3-0.9c0.5-0.3,1-0.6,1.4-0.8
			c0.9-0.5,1.9-0.9,2.9-1.2c1.9-0.6,4-0.7,5.9-0.4c1.2,0.2,2.3,0.5,3.4,0.8c1.1,0.3,2.3,0.6,3.4,1c2.2,0.9,4.4,2,6.5,3.3
			c2,1.2,3.9,2.7,5.6,4.3c1.8,1.7,3.4,3.5,5,5.4c0.8,1,1.5,2,2.3,3l2.3,3.2l9.2,12.9l18.5,25.9c1.5,2.1,4.3,2.6,6.5,1.2
			c2-1.3,2.6-4,1.3-6.1c0-0.1-0.1-0.1-0.1-0.2l0,0l-18.6-25.8l-9.3-12.9l-2.3-3.2c-0.8-1.1-1.7-2.2-2.6-3.3
			c-1.8-2.2-3.8-4.4-5.9-6.3c-2.2-2.1-4.6-3.9-7.2-5.4c-2.5-1.5-5.2-2.9-7.9-4c-0.7-0.3-1.5-0.5-2.3-0.8c-0.9-0.2-1.4-0.4-2.1-0.6
			c-1.5-0.4-3-0.7-4.5-1c-1.7-0.3-3.4-0.3-5-0.2c-1.7,0.1-3.4,0.5-5,1c-1.5,0.5-3,1.1-4.5,1.9c-0.7,0.4-1.3,0.8-2,1.2
			c-0.7,0.4-1.3,0.9-2,1.4c-2.5,2-4.6,4.4-6.2,7.2c-1.5,2.7-2.5,5.6-3,8.6c-0.5,2.9-0.7,5.8-0.5,8.7c0.1,1.4,0.2,2.8,0.4,4.2
			c0.2,1.5,0.5,3,0.9,4.5c0.9,2.9,2.1,5.6,3.7,8.2c0.8,1.2,1.5,2.4,2.4,3.5c0.8,1.1,1.5,2.2,2.3,3.3l4.5,6.5l18.1,26.1L390,268
			l9.1,13c1.7,2.5,3.8,4.7,6.1,6.6c2.4,1.9,5.1,3.4,8.1,4.5c1.4,0.5,2.8,1,4.2,1.4l1,0.3c0.3,0.1,0.7,0.2,1.1,0.3
			c0.8,0.2,1.7,0.3,2.5,0.4c3.1,0.2,6.3-0.2,9.3-1c1.5-0.4,3-1,4.4-1.7c1.5-0.7,2.9-1.7,4.2-2.8c1.2-1.2,2.3-2.5,3.1-4
			c0.7-1.4,1.3-2.9,1.7-4.5c0.6-2.9,0.8-5.9,0.5-8.9c-0.3-3-1-5.8-2.2-8.6c-0.6-1.4-1.2-2.7-2-4c-0.4-0.6-0.8-1.3-1.2-1.9
			c-0.4-0.6-0.9-1.2-1.3-1.7l-4.8-6.3c-6.4-8.4-12.8-16.9-19.2-25.4l-19.2-25.4l-4.8-6.4c-1.7-2.3-3.5-4.4-5.4-6.5
			c-1.1-1.1-2.2-2.1-3.5-3c-1.3-1-2.8-1.8-4.4-2.4c-3.5-1.3-7.3-1.2-10.7,0.5c-1.6,0.7-3,1.7-4.2,2.9c-1.4,1.3-2.4,2.9-3,4.6
			c-0.6,1.7-0.8,3.5-0.5,5.3c0.2,1.6,0.6,3.2,1.2,4.7c0.3,0.7,0.6,1.4,0.9,2.1s0.7,1.3,1.1,1.9c0.7,1.2,1.4,2.3,2.1,3.5
			c1.4,2.3,2.8,4.5,4.5,6.8c12.4,17.2,24.6,34.6,36.4,52.2c1.7,2.6,5.2,3.3,7.8,1.7c2.5-1.5,3.3-4.8,1.8-7.3c0-0.1-0.1-0.2-0.1-0.2
			C414.5,258.5,414.4,258.3,414.3,258.2z"/>
		<path id="icon-4" class="st13" d="M414.3,499.8c-13.4-16.5-26.4-33.3-39.3-50.2c-1.5-2-3-4.2-4.4-6.4c-0.7-1.1-1.4-2.2-2-3.3
			c-0.3-0.5-0.6-1-0.9-1.5c-0.3-0.5-0.5-1-0.7-1.5c-0.8-1.6-1-3.5-0.6-5.3c0.2-0.7,0.7-1.4,1.2-1.9c0.7-0.7,1.5-1.2,2.3-1.6
			c1.5-0.8,3.4-0.9,5-0.2c2,0.9,3.8,2.1,5.2,3.7c1.7,1.8,3.3,3.7,4.8,5.8l4.8,6.3l19.2,25.4c6.4,8.5,12.8,16.9,19.2,25.4l4.8,6.4
			c0.4,0.6,0.7,1,1.1,1.5s0.6,1,0.9,1.5c0.6,1,1.1,2,1.5,3.1c0.9,2.1,1.4,4.3,1.6,6.6c0.2,2.2,0.1,4.5-0.4,6.7
			c-0.4,1.9-1.4,3.7-2.8,5c-0.7,0.7-1.5,1.2-2.4,1.6c-1,0.5-2,0.9-3.1,1.2c-2.2,0.6-4.4,0.9-6.7,0.7c-0.5,0-1-0.1-1.5-0.2
			c-0.2,0-0.5-0.1-0.8-0.2l-0.9-0.3c-1.2-0.3-2.3-0.7-3.5-1.2c-2.1-0.8-4.1-1.9-5.9-3.4c-1.8-1.5-3.3-3.2-4.6-5.1l-8.9-13.1
			l-17.9-26.3l-17.9-26.3l-4.5-6.6c-0.8-1.1-1.5-2.2-2.3-3.3c-0.7-1-1.4-2.1-2-3.1c-1.2-1.9-2.1-4-2.8-6.2c-0.3-1.1-0.5-2.1-0.6-3.2
			c-0.1-1.2-0.2-2.4-0.3-3.6c-0.2-4.7,0.6-9.3,2.6-13c1-1.8,2.4-3.4,4-4.7c0.4-0.3,0.8-0.6,1.3-0.9c0.5-0.3,1-0.6,1.4-0.8
			c0.9-0.5,1.9-0.9,2.9-1.2c1.9-0.6,4-0.7,5.9-0.4c1.2,0.2,2.3,0.5,3.4,0.8c1.1,0.3,2.3,0.6,3.4,1c2.2,0.9,4.4,2,6.5,3.3
			c2,1.2,3.9,2.7,5.6,4.3c1.8,1.7,3.4,3.5,5,5.4c0.8,1,1.5,2,2.3,3l2.3,3.2L404,440l18.5,25.9c1.5,2.1,4.3,2.6,6.5,1.2
			c2-1.3,2.6-4,1.3-6.1c0-0.1-0.1-0.1-0.1-0.2l0,0L411.6,435l-9.3-12.9l-2.3-3.2c-0.8-1.1-1.7-2.2-2.6-3.3c-1.8-2.2-3.8-4.4-5.9-6.3
			c-2.2-2.1-4.6-3.9-7.2-5.4c-2.5-1.5-5.2-2.9-7.9-4c-0.7-0.3-1.5-0.5-2.3-0.8c-0.9-0.2-1.4-0.4-2.1-0.6c-1.5-0.4-3-0.7-4.5-1
			c-1.7-0.3-3.4-0.3-5-0.2c-1.7,0.1-3.4,0.5-5,1c-1.5,0.5-3,1.1-4.5,1.9c-0.7,0.4-1.3,0.8-2,1.2c-0.7,0.4-1.3,0.9-2,1.4
			c-2.5,2-4.6,4.4-6.2,7.2c-1.5,2.7-2.5,5.6-3,8.6c-0.5,2.9-0.7,5.8-0.5,8.7c0.1,1.4,0.2,2.8,0.4,4.2c0.2,1.5,0.5,3,0.9,4.5
			c0.9,2.9,2.1,5.6,3.7,8.2c0.8,1.2,1.5,2.4,2.4,3.5c0.8,1.1,1.5,2.2,2.3,3.3l4.5,6.5l18.1,26.1l18.2,26.1l9.1,13
			c1.7,2.5,3.8,4.7,6.1,6.6c2.4,1.9,5.1,3.4,8.1,4.5c1.4,0.5,2.8,1,4.2,1.3l1,0.3c0.3,0.1,0.7,0.2,1.1,0.3c0.8,0.2,1.7,0.3,2.5,0.4
			c3.1,0.2,6.3-0.2,9.3-1c1.5-0.4,3-1,4.4-1.7c1.5-0.7,2.9-1.7,4.2-2.8c1.2-1.2,2.3-2.5,3.1-4c0.7-1.4,1.3-2.9,1.7-4.5
			c0.6-2.9,0.8-5.9,0.5-8.9c-0.3-3-1-5.8-2.2-8.6c-0.6-1.4-1.2-2.7-2-4c-0.4-0.6-0.8-1.3-1.2-1.9c-0.4-0.6-0.9-1.2-1.3-1.7l-4.8-6.3
			c-6.4-8.4-12.8-16.9-19.2-25.4l-19.2-25.4l-4.8-6.4c-1.7-2.3-3.5-4.4-5.4-6.5c-1.1-1.1-2.2-2.1-3.5-3c-1.3-1-2.8-1.8-4.4-2.4
			c-3.5-1.3-7.3-1.2-10.7,0.5c-1.6,0.7-3,1.7-4.2,2.9c-1.4,1.3-2.4,2.9-3,4.6c-0.6,1.7-0.8,3.5-0.5,5.3c0.2,1.6,0.6,3.2,1.2,4.7
			c0.3,0.7,0.6,1.4,0.9,2.1c0.3,0.7,0.7,1.3,1.1,1.9c0.7,1.2,1.4,2.3,2.1,3.5c1.4,2.3,2.8,4.5,4.5,6.8
			c12.4,17.2,24.6,34.6,36.4,52.2c1.7,2.6,5.2,3.3,7.8,1.7c2.5-1.5,3.3-4.8,1.8-7.3c0-0.1-0.1-0.2-0.1-0.2
			C414.5,500.1,414.4,499.9,414.3,499.8z"/>
		<path class="st12" d="M469.1,529.9c-1-3-2.7-5.8-4.8-8.2c-0.5-0.6-1.1-1.2-1.7-1.7c-0.6-0.5-1.2-1-1.8-1.5c-1.3-1-2.6-1.9-4.1-2.6
			c-1.5-0.8-3.1-1.4-4.7-1.8c-1.6-0.4-3.3-0.6-5-0.7c-0.6,0-1.2,0-1.8,0c-0.9,0-1.8,0.1-2.8,0.2c-0.7,0.1-1.2,0.1-2.1,0.2
			c-0.8,0.1-1.6,0.2-2.3,0.4c0,0,0,0-0.1,0c-2.9,0.6-5.7,1.5-8.5,2.5c-2.8,1.1-5.5,2.5-8,4.1c-2.4,1.6-4.7,3.3-6.9,5.2
			c-0.1,0.1-0.2,0.2-0.4,0.3c0.5,0.3,1.1,0.5,1.7,0.7c1.1,0.4,2.3,0.8,3.5,1.2l0.9,0.3c0.3,0.1,0.6,0.2,0.8,0.2
			c0.5,0.1,1,0.2,1.5,0.2c0.9,0.1,1.8,0,2.7,0c0.4-0.3,0.8-0.6,1.2-0.8c2-1.3,4-2.4,6.2-3.3c1.2-0.5,2.3-0.9,3.5-1.2
			c1.1-0.3,2.3-0.7,3.4-0.9c1.2-0.2,2.3-0.4,3.5-0.4c0.5,0,1-0.1,1.5-0.1c0.7,0,1.4-0.1,2.1-0.1c2,0,4,0.5,5.8,1.4
			c0.9,0.5,1.8,1.1,2.6,1.7c0.4,0.3,0.8,0.7,1.3,1.1c0.4,0.4,0.8,0.7,1.1,1.1c1.4,1.5,2.5,3.3,3.2,5.3c1.4,3.9,1.3,8.6,0.3,13.2
			c-0.2,1.2-0.5,2.3-0.9,3.5c-0.3,1.1-0.7,2.1-1.1,3.1c-1,2-2.3,3.9-3.8,5.6c-0.8,0.9-1.6,1.8-2.5,2.7c-1,0.9-1.9,1.9-2.8,2.8
			l-5.6,5.7l-22.2,22.7l-22.2,22.8L388.9,626c-1.6,1.7-3.5,3.1-5.5,4.2c-2,1.1-4.2,1.9-6.4,2.3c-1.2,0.2-2.4,0.4-3.6,0.5l-1,0.1
			c-0.3,0-0.7,0.1-0.9,0.1c-0.5,0-1,0-1.5,0c-2.2-0.3-4.4-0.9-6.4-1.9c-1-0.5-2-1-2.9-1.7c-0.8-0.5-1.5-1.2-2.1-2
			c-1.1-1.6-1.8-3.5-1.8-5.4c-0.1-2.2,0.2-4.5,0.8-6.6c0.6-2.2,1.5-4.3,2.7-6.2c0.6-1,1.3-1.9,2-2.8c0.4-0.4,0.8-0.9,1.2-1.3
			c0.4-0.4,0.8-0.8,1.3-1.3l5.8-5.4c7.7-7.3,15.5-14.5,23.3-21.7l23.3-21.7l5.8-5.4c1.8-1.7,3.7-3.4,5.7-4.8
			c1.7-1.3,3.7-2.3,5.8-2.8c1.7-0.4,3.5,0,4.9,1.1c0.8,0.5,1.4,1.2,2,2c0.5,0.6,0.8,1.3,0.9,2.1c0.1,1.8-0.5,3.6-1.5,5.1
			c-0.3,0.5-0.6,0.9-1,1.4c-0.3,0.4-0.7,0.9-1.1,1.4c-0.8,0.9-1.7,1.9-2.6,2.9c-1.8,1.9-3.6,3.8-5.4,5.5
			c-15.6,14.4-31.3,28.7-47.4,42.6c-0.1,0.1-0.3,0.2-0.4,0.4c-0.1,0.1-0.1,0.1-0.2,0.2c-1.9,2.2-1.7,5.6,0.5,7.5
			c2.3,2,5.9,1.9,8-0.3c14.6-15.4,29.7-30.3,44.9-45.1c2-2,3.8-4,5.6-6c0.9-1,1.8-2,2.7-3.1c0.4-0.5,0.9-1.1,1.4-1.7
			c0.4-0.6,0.9-1.2,1.3-1.9c0.9-1.4,1.6-2.9,2-4.4c0.5-1.7,0.7-3.6,0.4-5.3c-0.3-1.8-1-3.6-2.1-5.1c-1-1.4-2.3-2.6-3.7-3.6
			c-3-2.2-6.8-3-10.4-2.3c-1.6,0.3-3.2,0.9-4.7,1.6c-1.4,0.7-2.7,1.5-3.9,2.4c-2.3,1.7-4.4,3.5-6.5,5.4l-5.8,5.4L389,572
			c-7.7,7.3-15.5,14.5-23.3,21.7l-5.8,5.4c-0.5,0.4-1,1-1.6,1.5c-0.5,0.5-1,1.1-1.5,1.6c-1,1.1-1.8,2.3-2.6,3.6
			c-1.6,2.5-2.8,5.2-3.6,8.1c-0.8,2.9-1.2,5.8-1,8.8c0.1,1.6,0.4,3.2,0.9,4.7c0.5,1.6,1.3,3.1,2.3,4.5c1,1.3,2.2,2.5,3.6,3.5
			c1.3,0.9,2.6,1.7,4,2.4c2.8,1.4,5.9,2.3,9,2.6c0.9,0.1,1.7,0.1,2.6,0.1c0.5,0,0.8,0,1.2-0.1l1.1-0.1c1.4-0.1,2.9-0.3,4.4-0.6
			c3-0.6,6-1.6,8.7-3.1c2.6-1.5,5-3.3,7.2-5.4l11.2-11.3l22.4-22.5l22.4-22.6l5.6-5.6c0.9-0.9,1.9-1.9,2.8-2.8c1-1,2-2,2.9-3.1
			c2-2.2,3.7-4.7,5.1-7.4c0.7-1.4,1.2-2.8,1.6-4.2c0.4-1.3,0.8-2.7,1.1-4.1c0.6-2.8,1-5.7,1-8.6
			C470.5,535.8,470.1,532.8,469.1,529.9z"/>
		<path id="icon-5" class="st12" d="M384.8,380.1c12.9-16.9,25.2-34.2,37.5-51.5c1.4-2,2.8-4.3,4.2-6.5c0.7-1.1,1.3-2.2,1.9-3.3
			c0.3-0.6,0.6-1.1,0.8-1.6c0.2-0.5,0.5-1,0.7-1.5c0.8-1.6,0.9-3.5,0.5-5.3c-0.3-0.7-0.7-1.4-1.3-1.9c-0.7-0.6-1.5-1.1-2.4-1.5
			c-1.6-0.7-3.4-0.8-5-0.1c-2,0.9-3.7,2.3-5.1,3.9c-1.7,1.9-3.2,3.8-4.6,5.9l-4.6,6.5l-18.3,26c-6.1,8.7-12.2,17.4-18.2,26.1
			l-4.5,6.5c-0.4,0.6-0.7,1-1,1.5c-0.3,0.5-0.6,1-0.9,1.5c-0.5,1-1,2.1-1.4,3.2c-0.8,2.1-1.3,4.4-1.4,6.7c-0.1,2.2,0.1,4.5,0.6,6.6
			c0.5,1.9,1.5,3.6,2.9,4.9c0.7,0.6,1.6,1.1,2.5,1.5c1,0.4,2.1,0.8,3.2,1c2.2,0.5,4.4,0.7,6.7,0.5c0.5,0,1-0.1,1.5-0.3
			c0.2,0,0.5-0.1,0.8-0.2l0.9-0.3c1.2-0.4,2.3-0.8,3.4-1.3c2.1-0.9,4.1-2.1,5.8-3.6c1.7-1.5,3.2-3.3,4.5-5.3l8.5-13.4l17-26.9
			l17-26.9l4.2-6.7c0.7-1.1,1.4-2.2,2.1-3.3c0.7-1.1,1.3-2.1,1.9-3.1c1.1-2,2-4.1,2.6-6.2c0.2-1.1,0.4-2.2,0.5-3.3
			c0.1-1.2,0.2-2.4,0.2-3.6c0-4.7-0.9-9.3-3.1-12.9c-1.1-1.8-2.5-3.3-4.2-4.5c-0.4-0.3-0.9-0.6-1.3-0.9c-0.5-0.3-1-0.5-1.5-0.8
			c-0.9-0.5-1.9-0.8-2.9-1.1c-1.9-0.5-4-0.6-5.9-0.2c-1.2,0.2-2.3,0.5-3.4,0.9c-1.1,0.3-2.2,0.7-3.3,1.1c-2.2,1-4.3,2.2-6.4,3.6
			c-2,1.3-3.8,2.8-5.4,4.5c-1.7,1.7-3.3,3.6-4.8,5.6c-0.7,1-1.5,2-2.2,3.1l-2.2,3.3l-8.8,13.3l-17.6,26.5c-1.4,2.1-4.2,2.7-6.4,1.4
			c-2.1-1.2-2.7-3.9-1.5-6c0-0.1,0.1-0.1,0.1-0.2l0,0l17.7-26.5L394,302l2.2-3.3c0.8-1.2,1.6-2.3,2.4-3.4c1.7-2.3,3.6-4.5,5.6-6.5
			c2.1-2.1,4.5-4,7-5.7c2.5-1.6,5-3,7.7-4.2c0.7-0.3,1.5-0.6,2.2-0.9c0.9-0.3,1.4-0.4,2.1-0.6c1.5-0.5,2.9-0.8,4.4-1.1
			c1.7-0.3,3.3-0.4,5-0.4c1.7,0.1,3.4,0.3,5,0.8c1.6,0.4,3.1,1,4.5,1.7c0.7,0.3,1.4,0.7,2,1.1c0.7,0.4,1.4,0.8,2,1.3
			c2.6,1.9,4.8,4.3,6.4,7c1.6,2.6,2.7,5.5,3.3,8.5c0.6,2.8,0.9,5.8,0.8,8.7c0,1.4-0.1,2.8-0.2,4.2c-0.1,1.5-0.4,3-0.7,4.5
			c-0.8,2.9-1.9,5.7-3.4,8.3c-0.7,1.3-1.5,2.5-2.2,3.6c-0.8,1.1-1.4,2.2-2.2,3.3l-4.3,6.7l-17.2,26.7L409.4,389l-8.6,13.4
			c-1.6,2.5-3.6,4.8-5.9,6.8c-2.4,2-5,3.6-7.9,4.8c-1.4,0.6-2.8,1.1-4.1,1.5l-1,0.3c-0.3,0.1-0.7,0.2-1.1,0.3
			c-0.8,0.2-1.7,0.4-2.5,0.5c-3.1,0.3-6.3,0.1-9.3-0.7c-1.5-0.4-3-0.9-4.4-1.5c-1.5-0.7-3-1.6-4.3-2.7c-1.3-1.1-2.4-2.4-3.2-3.9
			c-0.8-1.4-1.4-2.9-1.8-4.4c-0.7-2.9-1-5.9-0.8-8.9c0.2-3,0.8-5.9,1.9-8.7c0.5-1.4,1.1-2.7,1.8-4c0.4-0.6,0.7-1.3,1.1-1.9
			c0.4-0.6,0.8-1.3,1.2-1.8l4.6-6.5c6.1-8.7,12.2-17.3,18.3-26l18.3-26.1l4.6-6.5c1.6-2.3,3.3-4.6,5.2-6.7c1-1.1,2.2-2.2,3.4-3.1
			c1.3-1,2.8-1.9,4.3-2.6c3.4-1.5,7.3-1.4,10.7,0.1c1.6,0.7,3,1.6,4.3,2.7c1.4,1.2,2.5,2.8,3.1,4.5c0.6,1.7,0.9,3.5,0.7,5.3
			c-0.1,1.6-0.5,3.2-1.1,4.7c-0.3,0.7-0.6,1.4-0.9,2.1c-0.3,0.7-0.7,1.4-1,2c-0.7,1.2-1.3,2.4-2,3.6c-1.4,2.3-2.7,4.6-4.2,7
			c-11.8,17.7-23.4,35.4-34.5,53.5c-1.6,2.6-5.1,3.5-7.8,2c-2.6-1.4-3.5-4.7-2.1-7.3c0-0.1,0.1-0.2,0.1-0.2
			C384.6,380.4,384.7,380.2,384.8,380.1z"/>
		<g>
			<path class="st13" d="M430.2,461c0-0.1-0.1-0.1-0.1-0.2l0,0L411.5,435l-9.3-12.9l-2.3-3.2c-0.8-1.1-1.7-2.2-2.6-3.3
				c-1.4-1.7-2.8-3.3-4.3-4.9c-1.9,1.3-3.9,2.5-6,3.3c-0.8,0.3-1.6,0.6-2.3,0.9c0.2,0.2,0.4,0.4,0.6,0.5c1.8,1.7,3.4,3.5,5,5.4
				c0.8,1,1.5,2,2.3,3l2.3,3.2L404,440l18.5,25.9c1.5,2.1,4.3,2.6,6.5,1.2C431,465.8,431.6,463,430.2,461z"/>
			<path class="st13" d="M384.7,414.9c0.8-0.3,1.6-0.6,2.3-0.9c2.1-0.9,4.2-2,6-3.3c-0.5-0.5-1-1-1.5-1.5c-1.3-1.3-2.8-2.4-4.3-3.5
				c0,0,0,0,0,0c-0.9-0.7-1.9-1.3-2.9-1.9c-2.5-1.5-5.2-2.9-7.9-4c-0.7-0.3-1.5-0.5-2.3-0.8c-0.9-0.2-1.4-0.4-2.1-0.6
				c-1.5-0.4-3-0.7-4.5-1c-1.7-0.3-3.4-0.3-5-0.2c-0.3,0-0.7,0.1-1,0.1c0.1,1.4,0.3,2.7,0.6,4c0.4,1.7,1.3,3.2,2.5,4.4
				c0.6,0,1.1,0.1,1.7,0.2c1.2,0.2,2.3,0.5,3.4,0.8c1.1,0.3,2.3,0.6,3.4,1c1.2,0.5,2.3,1,3.5,1.6c0,0,0,0,0,0c1,0.5,2,1.1,3,1.7
				C381.5,412.2,383.1,413.5,384.7,414.9z"/>
		</g>
		<rect x="260" class="st2" width="280" height="700"/>
	</g>
</g>
</svg>
